#!OML:ASF C:\ViconDB\ViconDB\414\Spring2016\041811\Spring2016.ASF
:FULLY-SPECIFIED
:DEGREES
262
root 6.2984 18.0126 -46.9039 -186.15 -6.82608 179.055
lowerback 5.90202 0.84605 -4.19705
upperback 1.31696 0.78957 -0.266269
thorax -2.00582 0.381856 2.02255
lowerneck -11.835 -4.25004 -14.1931
upperneck 27.8085 -8.9099 13.3947
head 12.3315 -4.75597 6.13908
rclavicle -9.86158e-015 -2.00773e-014
rhumerus -54.5364 3.10732 -95.6038
rradius 108.476
rwrist 9.62691
rhand -35.7351 -11.3506
rfingers 7.12502
rthumb -8.85423 -41.1448
lclavicle -9.86158e-015 -2.00773e-014
lhumerus -67.4321 -22.5228 101.689
lradius 90.4419
lwrist -7.79856
lhand -33.4797 11.9129
lfingers 7.12502
lthumb -6.67733 41.7877
rfemur -7.38282 -16.7948 7.8818
rtibia 92.1016
rfoot -170.249 -6.92185
rtoes -6.79579
lfemur -19.8813 1.41255 -23.1708
ltibia 40.8782
lfoot -12.1887 -2.93387
ltoes -1.84465
263
root 6.28664 17.9502 -47.2732 -186.073 -6.84837 178.267
lowerback 6.18824 0.76988 -4.82062
upperback 1.28825 0.599238 -0.79797
thorax -2.18401 0.284717 1.83594
lowerneck -11.5671 -4.09738 -14.0242
upperneck 27.872 -8.90489 13.5971
head 12.2982 -4.75171 6.19428
rclavicle 1.55301e-016 2.46493e-014
rhumerus -54.9128 0.426554 -95.0817
rradius 104.86
rwrist 9.83725
rhand -35.7151 -11.9039
rfingers 7.12502
rthumb -8.83485 -41.699
lclavicle 1.55301e-016 2.46493e-014
lhumerus -64.6264 -23.892 101.133
lradius 89.1359
lwrist -8.30122
lhand -34.2489 13.359
lfingers 7.12502
lthumb -7.41979 43.2089
rfemur -10.6525 -16.7482 6.99178
rtibia 94.8692
rfoot -169.638 -5.73275
rtoes -6.91595
lfemur -19.452 2.06785 -23.8974
ltibia 42.2741
lfoot -13.6882 -3.56538
ltoes -2.56821
264
root 6.27041 17.8825 -47.6325 -186.151 -6.65744 177.68
lowerback 6.65382 0.71994 -5.17995
upperback 1.29261 0.438509 -1.28783
thorax -2.42868 0.199243 1.54165
lowerneck -11.4884 -3.94727 -13.9242
upperneck 27.954 -8.89236 13.9191
head 12.3213 -4.72997 6.31083
rclavicle -1.01318e-014 -5.12864e-014
rhumerus -55.2704 -2.04506 -94.5305
rradius 101.168
rwrist 9.98405
rhand -35.132 -12.8438
rfingers 7.12502
rthumb -8.27215 -42.6618
lclavicle -1.01318e-014 -5.12864e-014
lhumerus -61.5077 -24.7857 100.091
lradius 87.4543
lwrist -10.1173
lhand -34.0575 13.4493
lfingers 7.12502
lthumb -7.23509 43.3056
rfemur -13.8594 -16.5031 6.42816
rtibia 97.081
rfoot -168.845 -4.45011
rtoes -7.01727
lfemur -18.5827 2.78905 -24.3586
ltibia 43.2747
lfoot -15.1527 -4.21374
ltoes -3.12205
265
root 6.24981 17.8266 -47.9932 -186.244 -6.61566 177.209
lowerback 7.13477 0.577926 -5.51516
upperback 1.25875 0.156112 -1.6365
thorax -2.71508 0.0573311 1.39201
lowerneck -11.408 -3.73468 -13.834
upperneck 28.0573 -8.72131 14.0708
head 12.3149 -4.65266 6.38604
rclavicle 7.37367e-015 1.03368e-014
rhumerus -55.786 -4.16289 -93.8432
rradius 97.4163
rwrist 10.3638
rhand -35.0407 -13.8059
rfingers 7.12502
rthumb -8.18402 -43.6274
lclavicle 7.37367e-015 1.03368e-014
lhumerus -58.6238 -25.1215 99.2709
lradius 86.9079
lwrist -9.03169
lhand -33.9736 13.2992
lfingers 7.12502
lthumb -7.15413 43.1583
rfemur -16.8313 -16.3702 6.14609
rtibia 98.5521
rfoot -168.066 -3.20799
rtoes -7.1416
lfemur -17.4098 2.95238 -24.7532
ltibia 43.8666
lfoot -16.5596 -4.54175
ltoes -3.8337
266
root 6.22689 17.7887 -48.3633 -186.302 -6.6235 176.864
lowerback 7.57872 0.366092 -5.69785
upperback 1.1096 -0.21084 -1.99434
thorax -3.09613 -0.121139 1.15885
lowerneck -11.3164 -3.47949 -13.4889
upperneck 28.3901 -8.53631 13.9479
head 12.3687 -4.58743 6.31271
rclavicle -1.31695e-015 -3.37934e-014
rhumerus -56.7041 -5.80046 -93.4451
rradius 94.0158
rwrist 10.1164
rhand -35.8178 -14.5811
rfingers 7.12502
rthumb -8.93399 -44.3719
lclavicle -1.31695e-015 -3.37934e-014
lhumerus -56.1838 -24.7901 98.2947
lradius 86.5544
lwrist -10.5697
lhand -32.8197 10.2866
lfingers 7.12502
lthumb -6.04019 40.1805
rfemur -19.6291 -16.2669 6.23648
rtibia 99.26
rfoot -167.462 -2.3247
rtoes -6.86009
lfemur -15.9842 2.82695 -25.0573
ltibia 44.0694
lfoot -17.9523 -4.59361
ltoes -4.39028
267
root 6.20447 17.7781 -48.7383 -186.212 -6.69928 176.502
lowerback 7.82749 0.226809 -5.8602
upperback 0.912107 -0.484563 -2.49797
thorax -3.42886 -0.257924 0.756521
lowerneck -11.2067 -3.31907 -12.7108
upperneck 28.8288 -8.63406 13.7371
head 12.4888 -4.62663 6.08262
rclavicle -1.22253e-014 1.59028e-015
rhumerus -57.9351 -7.59238 -93.2077
rradius 91.1625
rwrist 10.4934
rhand -36.6981 -14.6868
rfingers 7.12502
rthumb -9.7834 -44.4395
lclavicle -1.22253e-014 1.59028e-015
lhumerus -54.0236 -24.2239 96.9608
lradius 86.8938
lwrist -13.8998
lhand -31.8644 9.55181
lfingers 7.12502
lthumb -5.11785 39.47
rfemur -22.3745 -16.292 6.52714
rtibia 99.2696
rfoot -167.266 -1.76048
rtoes -7.02252
lfemur -14.5082 2.76917 -25.4054
ltibia 43.9481
lfoot -19.1348 -4.59347
ltoes -4.69622
268
root 6.19802 17.7772 -49.1121 -186.282 -7.7483 176.426
lowerback 8.48531 -0.259438 -6.32195
upperback 0.699836 -1.23924 -2.48934
thorax -3.96763 -0.606799 1.1122
lowerneck -11.2447 -3.23069 -12.6253
upperneck 29.3205 -8.57421 13.4038
head 12.6642 -4.66133 5.9564
rclavicle 2.54693e-014 1.43125e-014
rhumerus -59.5558 -8.61306 -92.3668
rradius 89.2785
rwrist 11.1619
rhand -36.8686 -14.2395
rfingers 7.12502
rthumb -9.94784 -43.9844
lclavicle 2.54693e-014 1.43125e-014
lhumerus -52.3825 -23.2029 96.6109
lradius 87.186
lwrist -19.7654
lhand -31.8524 10.4001
lfingers 7.12502
lthumb -5.10626 40.3186
rfemur -24.3033 -17.1808 7.14202
rtibia 98.5335
rfoot -167.372 -1.66986
rtoes -7.06593
lfemur -12.7783 1.90264 -25.4552
ltibia 43.6481
lfoot -20.0614 -4.77755
ltoes -5.71005
